<?xml version="1.0" encoding="UTF-8"?>
<svg width="86px" height="86px" viewBox="0 0 86 86" version="1.1" xmlns="http://www.w3.org/2000/svg" xmlns:xlink="http://www.w3.org/1999/xlink">
    <title>Currencies Copy 2</title>
    <g id="Icons" stroke="none" stroke-width="1" fill="none" fill-rule="evenodd">
        <g id="Currencies-Copy-2">
            <rect id="Rectangle-Copy-14" fill-opacity="0.01" fill="#FFFFFF" x="0" y="0" width="86" height="86"></rect>
            <g id="Group-9" transform="translate(23.000000, 22.000000)" stroke="#4D4D4E" stroke-linecap="round" stroke-linejoin="round" stroke-width="2">
                <path d="M5.49252174,9.22886957 L3.48730435,5.89321739 L5.89252174,3.48626087 L9.22817391,5.49321739 L9.22817391,5.49669565 C9.86469565,5.13495652 10.5446957,4.84973913 11.269913,4.64626087 L12.2107826,0.868869565 L15.6142609,0.868869565 L16.5551304,4.64626087 C17.2803478,4.84973913 17.962087,5.13495652 18.5968696,5.49669565 L18.5968696,5.49321739 L21.9325217,3.48626087 L24.3394783,5.89321739 L22.3342609,9.22886957 L22.3290435,9.22886957 C22.6925217,9.86365217 22.976,10.5453913 23.1794783,11.2706087 L26.9568696,12.2114783 L26.9568696,15.6149565 L23.1794783,16.5558261 C22.976,17.2810435 22.6925217,17.9610435 22.3290435,18.5975652 L22.3342609,18.5975652 L24.3394783,21.9332174 L21.9325217,24.3384348 L18.5968696,22.3332174 L18.5968696,22.328 C17.962087,22.6914783 17.2803478,22.9749565 16.5551304,23.1784348 L15.6142609,26.9558261 L12.2107826,26.9558261 L11.269913,23.1784348 C10.5446957,22.9749565 9.86469565,22.6914783 9.22817391,22.328 L9.22817391,22.3332174 L5.89252174,24.3384348 L3.48730435,21.9332174 L5.49252174,18.5975652 L5.49773913,18.5975652 C5.13426087,17.9610435 4.85078261,17.2810435 4.64730435,16.5558261 L0.869913043,15.6149565 L0.869913043,12.2114783 L4.64730435,11.2706087 C4.85078261,10.5453913 5.13426087,9.86365217 5.49773913,9.22886957 L5.49252174,9.22886957 Z" id="Stroke-1"></path>
                <path d="M18.2608696,13.9130435 C18.2608696,16.3147826 16.3147826,18.2608696 13.9130435,18.2608696 C11.5113043,18.2608696 9.56521739,16.3147826 9.56521739,13.9130435 C9.56521739,11.5113043 11.5113043,9.56521739 13.9130435,9.56521739 C16.3147826,9.56521739 18.2608696,11.5113043 18.2608696,13.9130435 Z" id="Stroke-3"></path>
                <path d="M24.82,29.0523478 L23.4826087,26.828 L25.0878261,25.2227826 L27.313913,26.5584348 L27.3121739,26.561913 C27.7365217,26.321913 28.1886957,26.1323478 28.673913,25.9966957 L29.3,23.4784348 L31.5695652,23.4784348 L32.1956522,25.9966957 C32.6808696,26.1323478 33.1330435,26.321913 33.5573913,26.561913 L33.5556522,26.5584348 L35.7817391,25.2227826 L37.3869565,26.828 L36.0495652,29.0523478 L36.046087,29.0506087 C36.2878261,29.4749565 36.4756522,29.9288696 36.6113043,30.4123478 L39.1313043,31.0401739 L39.1313043,33.308 L36.6113043,33.9358261 C36.4756522,34.4193043 36.2878261,34.8732174 36.046087,35.2975652 L36.0495652,35.2958261 L37.3869565,37.5201739 L35.7817391,39.1253913 L33.5556522,37.788 L33.5573913,37.7845217 C33.1330435,38.0262609 32.6808696,38.2158261 32.1956522,38.3514783 L31.5695652,40.8697391 L29.3,40.8697391 L28.673913,38.3514783 C28.1886957,38.2158261 27.7365217,38.0262609 27.3121739,37.7845217 L27.313913,37.788 L25.0878261,39.1253913 L23.4826087,37.5201739 L24.82,35.2958261 L24.8234783,35.2975652 C24.5817391,34.8732174 24.393913,34.4193043 24.2582609,33.9358261 L21.74,33.308 L21.74,31.0401739 L24.2582609,30.4123478 C24.393913,29.9288696 24.5817391,29.4749565 24.8234783,29.0506087 L24.82,29.0523478 Z" id="Stroke-5"></path>
                <path d="M33.333913,32.173913 C33.333913,33.7756522 32.0365217,35.0730435 30.4347826,35.0730435 C28.8330435,35.0730435 27.5356522,33.7756522 27.5356522,32.173913 C27.5356522,30.5721739 28.8330435,29.2747826 30.4347826,29.2747826 C32.0365217,29.2747826 33.333913,30.5721739 33.333913,32.173913 Z" id="Stroke-7"></path>
            </g>
        </g>
    </g>
</svg>